<svg id="Layer_1" data-name="Layer 1" xmlns="http://www.w3.org/2000/svg" xmlns:xlink="http://www.w3.org/1999/xlink" viewBox="0 0 801.35 801.35"><defs><style>.cls-1{fill:none;}.cls-2{clip-path:url(#clip-path);}.cls-3{fill:#fff;}.cls-4{clip-path:url(#clip-path-2);}.cls-5{clip-path:url(#clip-path-3);}.cls-6{clip-path:url(#clip-path-4);}.cls-7{clip-path:url(#clip-path-5);}.cls-8{clip-path:url(#clip-path-6);}.cls-9{clip-path:url(#clip-path-7);}.cls-10{clip-path:url(#clip-path-8);}.cls-11{clip-path:url(#clip-path-9);}.cls-12{clip-path:url(#clip-path-10);}</style><clipPath id="clip-path"><polygon class="cls-1" points="594.33 694.99 399.48 398.85 399.48 397.56 661.36 397.56 661.36 694.99 594.33 694.99"/></clipPath><clipPath id="clip-path-2"><polygon class="cls-1" points="594.33 694.99 399.48 398.85 398.29 398.34 294.65 638.85 567.8 756.55 594.33 694.99"/></clipPath><clipPath id="clip-path-3"><polygon class="cls-1" points="179.25 677.49 400 401.52 404.92 401.52 404.92 722.38 179.25 722.38 179.25 677.49"/></clipPath><clipPath id="clip-path-4"><polygon class="cls-1" points="179.25 677.49 400 401.52 398.92 396.73 85.9 467.2 135.46 687.35 179.25 677.49"/></clipPath><clipPath id="clip-path-5"><polygon class="cls-1" points="44.88 266.54 399.15 400.1 399.15 442.88 36.15 442.88 36.15 266.54 44.88 266.54"/></clipPath><clipPath id="clip-path-6"><polygon class="cls-1" points="44.88 266.54 399.15 400.1 427.39 367.96 154.74 128.33 38.32 260.78 44.88 266.54"/></clipPath><clipPath id="clip-path-7"><polygon class="cls-1" points="418.18 23.41 400.67 400.75 284.63 400.75 284.63 23.41 418.18 23.41"/></clipPath><clipPath id="clip-path-8"><polygon class="cls-1" points="418.18 23.41 400.67 400.75 516.22 411.5 551.15 35.78 418.18 23.41"/></clipPath><clipPath id="clip-path-9"><polygon class="cls-1" points="753.75 303.8 399 401.14 399 210.52 753.75 210.52 753.75 303.8"/></clipPath><clipPath id="clip-path-10"><polygon class="cls-1" points="753.75 303.8 399 401.14 496.28 565.06 801.35 384.01 753.75 303.8"/></clipPath></defs><g id="_Radial_Repeat_" data-name="&lt;Radial Repeat&gt;"><g id="_Mirror_Repeat_" data-name="&lt;Mirror Repeat&gt;"><g class="cls-2"><path class="cls-3" d="M441.72,438.35l82.11,90.76a10.88,10.88,0,0,1,7.57-2.8c7.5.35,13.18,9.25,12.69,19.89s-7,19-14.47,18.63-13.19-9.25-12.69-19.89a26.16,26.16,0,0,1,1.17-6.71L416,425.42l151.51,262.3L637.42,695c40.52-56.21,26-147.57-16.57-185C547.69,445.69,465.49,439,441.72,438.35Zm-19.9-22,11.61,12.83C439.53,416.7,487.73,428.57,421.82,416.35ZM518.1,538.23l5.73-9.12A19.48,19.48,0,0,0,518.1,538.23Z"/><path class="cls-3" d="M518.1,538.23a19.48,19.48,0,0,1,5.73-9.12Z"/><path class="cls-3" d="M523.83,529.11l-5.73,9.12A19.48,19.48,0,0,1,523.83,529.11Z"/><path class="cls-3" d="M435,438.31c-2.39-4-2.62-6.92-1.54-9.13l8.29,9.17C437.38,438.24,435,438.33,435,438.31Z"/><path class="cls-3" d="M399.48,407.11l5.34-9.54,17,18.78q-5.61-1-12.35-2.31L416,425.41Z"/></g></g><g id="_Mirror_Repeat_2" data-name="&lt;Mirror Repeat&gt;"><g class="cls-4"><path class="cls-3" d="M419,453.28,469.89,564.6a10.89,10.89,0,0,0-5.57,5.85c-2.65,7,3.28,15.76,13.25,19.52s20.18,1.1,22.83-5.92-3.28-15.77-13.24-19.52a26.38,26.38,0,0,0-6.63-1.58l-63.2-138.37L598.24,667.52l-21,67.05c-67.66,15-145.82-34.53-163.34-88.43C383.83,553.5,410.19,475.35,419,453.28Zm-12.32-27L413.9,442C400,442.7,391.84,491.66,406.71,426.3ZM480.53,563l-10.64,1.65A19.47,19.47,0,0,1,480.53,563Z"/><path class="cls-3" d="M480.53,563a19.47,19.47,0,0,0-10.64,1.65Z"/><path class="cls-3" d="M469.89,564.6,480.53,563A19.47,19.47,0,0,0,469.89,564.6Z"/><path class="cls-3" d="M421.66,447.06c-2.7-3.77-5.31-5.14-7.76-5L419,453.28C420.65,449.24,421.68,447.08,421.66,447.06Z"/><path class="cls-3" d="M407.06,402.12l-10.88,1.14,10.53,23q1.28-5.57,2.76-12.26l7.85,10.53Z"/></g></g></g><g id="_Radial_Repeat_2" data-name="&lt;Radial Repeat&gt;"><g id="_Mirror_Repeat_3" data-name="&lt;Mirror Repeat&gt;"><g class="cls-5"><path class="cls-3" d="M377.53,451.36,316.58,557.49a10.9,10.9,0,0,1,5,6.34c2,7.23-4.73,15.39-15,18.21s-20.2-.78-22.19-8,4.73-15.4,15-18.21a25.92,25.92,0,0,1,6.74-1l75.75-131.93L179.25,648.09l14.67,68.69c66,21.17,148.39-20.88,170.82-72.93C403.3,554.4,384.29,474.15,377.53,451.36Zm14.77-25.73-8.62,15C397.44,442.58,401.05,492.09,392.3,425.63ZM306.14,554.86l10.44,2.63A19.39,19.39,0,0,0,306.14,554.86Z"/><path class="cls-3" d="M306.14,554.86a19.39,19.39,0,0,1,10.44,2.63Z"/><path class="cls-3" d="M316.58,557.49l-10.44-2.63A19.39,19.39,0,0,1,316.58,557.49Z"/><path class="cls-3" d="M375.49,444.92c3-3.5,5.77-4.63,8.19-4.28l-6.15,10.72C376.29,447.19,375.47,444.93,375.49,444.92Z"/><path class="cls-3" d="M394.19,401.52l10.73,2.14-12.62,22c-.5-3.77-1-7.91-1.62-12.46l-8.79,9.76Z"/></g></g><g id="_Mirror_Repeat_4" data-name="&lt;Mirror Repeat&gt;"><g class="cls-6"><path class="cls-3" d="M356.32,434.39l-90.16,82.77a10.84,10.84,0,0,0-7.28-3.49c-7.49-.35-14,8-14.47,18.63s5.19,19.54,12.68,19.89,14-8,14.48-18.63a26.51,26.51,0,0,0-.54-6.8L383.09,423.9,207.94,671l-70.24.77c-35.14-59.72-12.22-149.35,33.63-182.67C250.13,431.88,332.6,432.8,356.32,434.39Zm21.85-20.06L365.42,426C360.51,413,311.42,420.39,378.17,414.33ZM271,526.76l-4.87-9.6A19.4,19.4,0,0,1,271,526.76Z"/><path class="cls-3" d="M271,526.76a19.4,19.4,0,0,0-4.87-9.6Z"/><path class="cls-3" d="M266.16,517.16l4.87,9.6A19.4,19.4,0,0,0,266.16,517.16Z"/><path class="cls-3" d="M363.05,435c2.74-3.74,3.25-6.65,2.37-8.94l-9.1,8.36C360.66,434.68,363,435,363.05,435Z"/><path class="cls-3" d="M401.28,407.19l-4.45-10-18.66,17.14c3.79-.34,7.95-.72,12.52-1.16l-7.6,10.72Z"/></g></g></g><g id="_Radial_Repeat_3" data-name="&lt;Radial Repeat&gt;"><g id="_Mirror_Repeat_5" data-name="&lt;Mirror Repeat&gt;"><g class="cls-7"><path class="cls-3" d="M345.32,394.33,225.55,369.16a10.92,10.92,0,0,1-4.48,6.72c-6.27,4.12-16.1.26-21.95-8.64s-5.51-19.45.75-23.58,16.11-.26,22,8.64a25.88,25.88,0,0,1,3,6.12L373.7,389.68,97,266.54l-60.8,35.18c.26,69.3,65.71,134.67,122.15,139.93C255.28,450.67,325.74,407.8,345.32,394.33Zm29,6.09-16.93-3.56C359.83,410.54,313.85,429.28,374.35,400.42Zm-149.52-42,.72,10.74A19.32,19.32,0,0,0,224.83,358.42Z"/><path class="cls-3" d="M224.83,358.42a19.32,19.32,0,0,1,.72,10.74Z"/><path class="cls-3" d="M225.55,369.16l-.72-10.74A19.32,19.32,0,0,1,225.55,369.16Z"/><path class="cls-3" d="M350.81,390.39c4.27,1.81,6.19,4.06,6.61,6.47l-12.1-2.53C348.91,391.86,350.79,390.38,350.81,390.39Z"/><path class="cls-3" d="M397.87,394.77l1.28,10.86-24.8-5.21q5.14-2.46,11.36-5.39l-12-5.34Z"/></g></g><g id="_Mirror_Repeat_6" data-name="&lt;Mirror Repeat&gt;"><g class="cls-8"><path class="cls-3" d="M354.91,368.9,248.33,308.74a11,11,0,0,0,1.07-8c-2-7.23-11.92-10.82-22.19-8s-17,11-15,18.21,11.92,10.83,22.19,8a26.34,26.34,0,0,0,6.3-2.62l132.46,74.8L84,300.92,61.55,234.36c45.94-51.88,138.26-57.78,184.12-24.47C324.47,267.14,349.09,345.85,354.91,368.9Zm25.83,14.59L365.67,375C376.51,366.3,354.34,321.88,380.74,383.49Zm-140-67.16,7.63-7.59A19.37,19.37,0,0,1,240.7,316.33Z"/><path class="cls-3" d="M240.7,316.33a19.37,19.37,0,0,0,7.63-7.59Z"/><path class="cls-3" d="M248.33,308.74l-7.63,7.59A19.37,19.37,0,0,0,248.33,308.74Z"/><path class="cls-3" d="M356.43,375.49c4.41,1.45,7.33,1,9.24-.51l-10.76-6.08C356,373.12,356.41,375.48,356.43,375.49Z"/><path class="cls-3" d="M394.67,403.26,402.8,396l-22.06-12.46c1.49,3.5,3.14,7.34,5,11.55l-12.54-3.92Z"/></g></g></g><g id="_Radial_Repeat_4" data-name="&lt;Radial Repeat&gt;"><g id="_Mirror_Repeat_7" data-name="&lt;Mirror Repeat&gt;"><g class="cls-9"><path class="cls-3" d="M389.61,346.07,376.54,224.38a10.9,10.9,0,0,1-7.78-2.18c-5.86-4.69-5.22-15.23,1.43-23.55s16.8-11.25,22.66-6.57,5.23,15.24-1.43,23.56a26.62,26.62,0,0,1-4.89,4.74L402.8,371.63,434.39,70.37l-52.25-47c-65.82,21.66-107.77,104.11-95.33,159.41C308.2,277.85,370.74,331.61,389.61,346.07Zm3.17,29.49-1.85-17.2C378.67,364.87,346.65,326.94,392.78,375.56Zm-6.25-155.18-10,4A19.37,19.37,0,0,0,386.53,220.38Z"/><path class="cls-3" d="M386.53,220.38a19.37,19.37,0,0,1-10,4Z"/><path class="cls-3" d="M376.54,224.38l10-4A19.37,19.37,0,0,1,376.54,224.38Z"/><path class="cls-3" d="M395.05,350.08c-.4,4.62-1.94,7.13-4.12,8.28l-1.32-12.29C393.06,348.72,395.06,350.05,395.05,350.08Z"/><path class="cls-3" d="M405.43,396.18l-9.94,4.57-2.71-25.19c2.63,2.76,5.5,5.8,8.64,9.14l1.37-13.07Z"/></g></g><g id="_Mirror_Repeat_8" data-name="&lt;Mirror Repeat&gt;"><g class="cls-10"><path class="cls-3" d="M416.75,347.33,441,227.38a11,11,0,0,0,8-1.46c6.26-4.12,6.61-14.68.75-23.58s-15.68-12.76-22-8.63-6.61,14.68-.76,23.58a26.43,26.43,0,0,0,4.43,5.17l-30.2,149.09L397.69,68.66l56.37-41.91c63.53,27.66,97.67,113.64,80.16,167.55C504.13,286.94,436.88,334.67,416.75,347.33Zm-5.89,29.07,3.43-17C425.9,367.07,461.3,332.26,410.86,376.4Zm20.59-153.94,9.58,4.92A19.49,19.49,0,0,1,431.45,222.46Z"/><path class="cls-3" d="M431.45,222.46a19.49,19.49,0,0,0,9.58,4.92Z"/><path class="cls-3" d="M441,227.38l-9.58-4.92A19.49,19.49,0,0,0,441,227.38Z"/><path class="cls-3" d="M411,350.81c0,4.64,1.28,7.29,3.33,8.63l2.46-12.11C413.07,349.65,411,350.79,411,350.81Z"/><path class="cls-3" d="M396.36,395.76l9.47,5.47,5-24.83q-4.31,3.75-9.44,8.3l-.16-13.14Z"/></g></g></g><g id="_Radial_Repeat_5" data-name="&lt;Radial Repeat&gt;"><g id="_Mirror_Repeat_9" data-name="&lt;Mirror Repeat&gt;"><g class="cls-11"><path class="cls-3" d="M449.19,373.28l111.69-50a10.87,10.87,0,0,1-.32-8.07c2.64-7,12.87-9.67,22.83-5.92s15.9,12.5,13.25,19.52-12.87,9.68-22.84,5.93a26.69,26.69,0,0,1-6-3.19L429,393.72l296.28-63.05,28.51-64.2c-40.94-55.91-132.32-70.33-181.07-41.41C488.91,274.77,457.12,350.86,449.19,373.28Zm-27.07,12.13,15.79-7.08C427.92,368.68,454.11,326.51,422.12,385.41Zm145.66-53.9-6.9-8.27A19.47,19.47,0,0,0,567.78,331.51Z"/><path class="cls-3" d="M567.78,331.51a19.47,19.47,0,0,1-6.9-8.27Z"/><path class="cls-3" d="M560.88,323.24l6.9,8.27A19.47,19.47,0,0,1,560.88,323.24Z"/><path class="cls-3" d="M447.06,379.69c-4.52,1-7.39.36-9.15-1.36l11.28-5.05C447.74,377.38,447.08,379.69,447.06,379.69Z"/><path class="cls-3" d="M406.42,403.8l-7.42-8,23.12-10.36q-2.72,5-6,11L429,393.71Z"/></g></g><g id="_Mirror_Repeat_10" data-name="&lt;Mirror Repeat&gt;"><g class="cls-12"><path class="cls-3" d="M456.38,399.48l121.59-14a10.86,10.86,0,0,0,3.84,7.1c5.85,4.69,16,1.75,22.65-6.56s7.29-18.86,1.43-23.55-16-1.76-22.66,6.56a26.19,26.19,0,0,0-3.55,5.82L428.55,392.23l287-97L772.8,335.9c-6.68,69-77.9,128-134.58,128C540.82,463.92,474.64,414.71,456.38,399.48Zm-29.47,3.38,17.19-2C440.44,414.28,484.48,437.19,426.91,402.86Zm152.77-28L578,385.51A19.4,19.4,0,0,1,579.68,374.88Z"/><path class="cls-3" d="M579.68,374.88A19.4,19.4,0,0,0,578,385.51Z"/><path class="cls-3" d="M578,385.51l1.71-10.63A19.4,19.4,0,0,0,578,385.51Z"/><path class="cls-3" d="M451.28,395.05c-4.42,1.41-6.54,3.47-7.18,5.84l12.28-1.41C453,396.69,451.3,395,451.28,395.05Z"/><path class="cls-3" d="M404,395.05l-2.28,10.7,25.17-2.89c-3.26-2-6.86-4.09-10.81-6.42l12.45-4.2Z"/></g></g></g></svg>